<svg width="57" height="59" viewBox="0 0 57 59" fill="none" xmlns="http://www.w3.org/2000/svg">
<path d="M0.369257 48L4.04016 38.1357H5.25695L8.92101 48H7.62902L6.63098 45.1768H2.6593L1.66125 48H0.369257ZM4.63488 39.6123L3.03527 44.1309H6.26184L4.66223 39.6123H4.63488ZM10.3358 48V38.1357H11.5662V48H10.3358ZM16.1253 48L19.7962 38.1357H21.013L24.677 48H23.385L22.387 45.1768H18.4153L17.4173 48H16.1253ZM20.3909 39.6123L18.7913 44.1309H22.0179L20.4182 39.6123H20.3909ZM27.3633 48L24.7451 40.8906H25.9961L27.958 46.7354H27.9854L29.9541 40.8906H31.1914L28.5801 48H27.3633ZM34.3493 48.1367C32.9343 48.1367 31.9841 47.2822 31.9841 45.9902V45.9766C31.9841 44.7666 32.9275 44.0078 34.5612 43.9121L36.5984 43.7959V43.2012C36.5984 42.333 36.031 41.8066 35.0398 41.8066C34.1237 41.8066 33.5495 42.2441 33.4128 42.8799L33.3991 42.9414H32.2507L32.2575 42.8662C32.3601 41.6973 33.3786 40.7539 35.0534 40.7539C36.7351 40.7539 37.7878 41.6631 37.7878 43.085V48H36.5984V46.8447H36.571C36.154 47.624 35.2995 48.1367 34.3493 48.1367ZM33.2009 45.9902C33.2009 46.6738 33.7614 47.1045 34.6159 47.1045C35.737 47.1045 36.5984 46.332 36.5984 45.2998V44.7188L34.698 44.835C33.7478 44.8896 33.2009 45.3135 33.2009 45.9766V45.9902ZM41.8891 48.1367C40.5834 48.1367 39.9409 47.5488 39.9409 46.1885V41.875H38.9018V40.8906H39.9409V38.9697H41.1713V40.8906H42.5248V41.875H41.1713V46.1816C41.1713 46.9404 41.5063 47.1523 42.142 47.1523C42.2856 47.1523 42.4223 47.1318 42.5248 47.125V48.0889C42.3745 48.1094 42.1215 48.1367 41.8891 48.1367ZM46.0246 48.1367C44.6095 48.1367 43.6593 47.2822 43.6593 45.9902V45.9766C43.6593 44.7666 44.6027 44.0078 46.2365 43.9121L48.2736 43.7959V43.2012C48.2736 42.333 47.7062 41.8066 46.715 41.8066C45.799 41.8066 45.2248 42.2441 45.088 42.8799L45.0744 42.9414H43.9259L43.9328 42.8662C44.0353 41.6973 45.0539 40.7539 46.7287 40.7539C48.4103 40.7539 49.463 41.6631 49.463 43.085V48H48.2736V46.8447H48.2462C47.8293 47.624 46.9748 48.1367 46.0246 48.1367ZM44.8761 45.9902C44.8761 46.6738 45.4367 47.1045 46.2912 47.1045C47.4123 47.1045 48.2736 46.332 48.2736 45.2998V44.7188L46.3732 44.835C45.423 44.8896 44.8761 45.3135 44.8761 45.9766V45.9902ZM51.2538 48V40.8906H52.4432V42.0938H52.4706C52.7098 41.2734 53.3251 40.7539 54.1249 40.7539C54.33 40.7539 54.5077 40.7881 54.6034 40.8018V41.957C54.5077 41.9229 54.2548 41.8887 53.9677 41.8887C53.0448 41.8887 52.4432 42.5312 52.4432 43.6113V48H51.2538Z" fill="#646464"/>
<path d="M20 17V15C20 14.4696 20.2107 13.9609 20.5858 13.5858C20.9609 13.2107 21.4696 13 22 13H24M20 25V27C20 27.5304 20.2107 28.0391 20.5858 28.4142C20.9609 28.7893 21.4696 29 22 29H24M32 13H34C34.5304 13 35.0391 13.2107 35.4142 13.5858C35.7893 13.9609 36 14.4696 36 15V17M32 29H34C34.5304 29 35.0391 28.7893 35.4142 28.4142C35.7893 28.0391 36 27.5304 36 27V25M25 19H25.01M31 19H31.01M25.5 24C25.8259 24.3326 26.2148 24.5968 26.6441 24.7772C27.0734 24.9576 27.5344 25.0505 28 25.0505C28.4656 25.0505 28.9266 24.9576 29.3559 24.7772C29.7852 24.5968 30.1741 24.3326 30.5 24" stroke="#646464" stroke-width="2" stroke-linecap="round" stroke-linejoin="round"/>
</svg>
