<svg width="57" height="59" viewBox="0 0 57 59" fill="none" xmlns="http://www.w3.org/2000/svg">
<path d="M20.5 17H36.5M20.5 17V27C20.5 27.5304 20.7107 28.0391 21.0858 28.4142C21.4609 28.7893 21.9696 29 22.5 29H34.5C35.0304 29 35.5391 28.7893 35.9142 28.4142C36.2893 28.0391 36.5 27.5304 36.5 27V17M20.5 17L24.5 13H32.5L36.5 17M24.5 21H28.5" stroke="white" stroke-width="1.3" stroke-linecap="round" stroke-linejoin="round"/>
<path d="M3.25242 48V38.1357H6.92332C8.85789 38.1357 10.1977 39.4346 10.1977 41.3691V41.3828C10.1977 43.3105 8.85789 44.6299 6.92332 44.6299H4.78367V48H3.25242ZM6.54051 39.4277H4.78367V43.3447H6.54051C7.87352 43.3447 8.63914 42.627 8.63914 41.3896V41.376C8.63914 40.1455 7.87352 39.4277 6.54051 39.4277ZM11.6398 48V40.8086H13.1164V42.0391H13.1506C13.383 41.1982 13.9846 40.6719 14.8049 40.6719C15.0168 40.6719 15.2014 40.7061 15.3176 40.7266V42.1006C15.2014 42.0527 14.9416 42.0186 14.6545 42.0186C13.7043 42.0186 13.1164 42.6406 13.1164 43.7139V48H11.6398ZM19.289 48.1436C17.2245 48.1436 15.8779 46.7148 15.8779 44.4043V44.3906C15.8779 42.0938 17.2382 40.6719 19.2821 40.6719C21.3329 40.6719 22.7001 42.0869 22.7001 44.3906V44.4043C22.7001 46.7217 21.3466 48.1436 19.289 48.1436ZM19.2958 46.9062C20.4511 46.9062 21.1894 45.9902 21.1894 44.4043V44.3906C21.1894 42.8184 20.4374 41.9092 19.2821 41.9092C18.1474 41.9092 17.3886 42.8184 17.3886 44.3906V44.4043C17.3886 45.9971 18.1405 46.9062 19.2958 46.9062ZM26.8082 48.1436C24.9762 48.1436 23.8004 46.6943 23.8004 44.4043V44.3975C23.8004 42.1074 24.9899 40.6719 26.7946 40.6719C27.8131 40.6719 28.6334 41.1846 29.0641 42.0322H29.0914V38.1357H30.5748V48H29.0914V46.7832H29.0641C28.6334 47.624 27.8405 48.1436 26.8082 48.1436ZM27.1979 46.8721C28.3121 46.8721 29.0983 45.9014 29.0983 44.4043V44.3975C29.0983 42.9072 28.3053 41.9365 27.1979 41.9365C26.0358 41.9365 25.3112 42.8799 25.3112 44.3975V44.4043C25.3112 45.9355 26.0289 46.8721 27.1979 46.8721ZM33.1586 39.7012C32.68 39.7012 32.2972 39.3184 32.2972 38.8535C32.2972 38.3818 32.68 37.999 33.1586 37.999C33.6439 37.999 34.0199 38.3818 34.0199 38.8535C34.0199 39.3184 33.6439 39.7012 33.1586 39.7012ZM31.5453 50.4062C31.4291 50.4062 31.2992 50.3994 31.2035 50.3926V49.1826C31.2718 49.1826 31.3402 49.1895 31.4154 49.1895C32.1468 49.1895 32.4203 48.957 32.4203 48.2324V40.8086H33.8968V48.2461C33.8968 49.709 33.138 50.4062 31.5453 50.4062ZM38.7706 48.1436C36.6583 48.1436 35.38 46.7012 35.38 44.4316V44.4248C35.38 42.1758 36.6788 40.6719 38.6954 40.6719C40.712 40.6719 41.9493 42.1211 41.9493 44.2812V44.7803H36.8565C36.8839 46.1406 37.629 46.9336 38.8048 46.9336C39.6798 46.9336 40.2608 46.4824 40.4454 45.9424L40.4659 45.8877H41.8673L41.8536 45.9629C41.6212 47.1045 40.5138 48.1436 38.7706 48.1436ZM38.7022 41.8818C37.7452 41.8818 37.0069 42.5312 36.877 43.7344H40.4864C40.3634 42.4902 39.6661 41.8818 38.7022 41.8818ZM46.4676 48.1436C44.3689 48.1436 43.0564 46.7012 43.0564 44.3975V44.3906C43.0564 42.1143 44.3963 40.6719 46.4471 40.6719C48.2996 40.6719 49.4207 41.8613 49.5438 43.2148L49.5506 43.2627H48.1424L48.1287 43.208C47.9715 42.5039 47.4246 41.9092 46.4607 41.9092C45.3123 41.9092 44.5672 42.8662 44.5672 44.4043V44.4111C44.5672 45.9834 45.326 46.9062 46.4676 46.9062C47.3768 46.9062 47.9578 46.3799 48.1355 45.6006L48.1424 45.5459H49.5643L49.5574 45.5938C49.4002 47.0361 48.1971 48.1436 46.4676 48.1436ZM53.4126 48.1436C51.9907 48.1436 51.3071 47.542 51.3071 46.1064V41.9844H50.2749V40.8086H51.3071V38.9355H52.8179V40.8086H54.1646V41.9844H52.8179V46.0176C52.8179 46.749 53.146 46.9678 53.7681 46.9678C53.9253 46.9678 54.0552 46.9541 54.1646 46.9404V48.082C53.9937 48.1094 53.7134 48.1436 53.4126 48.1436Z" fill="white"/>
</svg>
