<svg width="60" height="60" viewBox="0 0 60 60" fill="none" xmlns="http://www.w3.org/2000/svg">
<circle cx="30" cy="30" r="30" fill="white"/>
<path d="M40.6667 22.8H35.3333V21.6C35.3333 20.6452 34.9119 19.7295 34.1618 19.0544C33.4116 18.3793 32.3942 18 31.3333 18H28.6667C27.6058 18 26.5884 18.3793 25.8382 19.0544C25.0881 19.7295 24.6667 20.6452 24.6667 21.6V22.8H19.3333C18.9797 22.8 18.6406 22.9264 18.3905 23.1515C18.1405 23.3765 18 23.6817 18 24C18 24.3183 18.1405 24.6235 18.3905 24.8485C18.6406 25.0736 18.9797 25.2 19.3333 25.2H20.6667V38.4C20.6667 39.3548 21.0881 40.2705 21.8382 40.9456C22.5884 41.6207 23.6058 42 24.6667 42H35.3333C36.3942 42 37.4116 41.6207 38.1618 40.9456C38.9119 40.2705 39.3333 39.3548 39.3333 38.4V25.2H40.6667C41.0203 25.2 41.3594 25.0736 41.6095 24.8485C41.8595 24.6235 42 24.3183 42 24C42 23.6817 41.8595 23.3765 41.6095 23.1515C41.3594 22.9264 41.0203 22.8 40.6667 22.8ZM27.3333 21.6C27.3333 21.2817 27.4738 20.9765 27.7239 20.7515C27.9739 20.5264 28.313 20.4 28.6667 20.4H31.3333C31.687 20.4 32.0261 20.5264 32.2761 20.7515C32.5262 20.9765 32.6667 21.2817 32.6667 21.6V22.8H27.3333V21.6ZM36.6667 38.4C36.6667 38.7183 36.5262 39.0235 36.2761 39.2485C36.0261 39.4736 35.687 39.6 35.3333 39.6H24.6667C24.313 39.6 23.9739 39.4736 23.7239 39.2485C23.4738 39.0235 23.3333 38.7183 23.3333 38.4V25.2H36.6667V38.4Z" fill="#FF3318"/>
</svg>
