<svg width="57" height="59" viewBox="0 0 57 59" fill="none" xmlns="http://www.w3.org/2000/svg">
<path d="M23.2201 21.1675L22.7621 22.396C22.5914 22.8631 22.3015 23.2875 21.9158 23.6354C21.53 23.9832 21.0591 24.2447 20.5409 24.399L19.1597 24.8125C19.1249 24.8227 19.0934 24.8401 19.0675 24.8634C19.0417 24.8867 19.0224 24.9152 19.0112 24.9465C18.9999 24.9779 18.9971 25.0112 19.003 25.0437C19.0088 25.0762 19.0231 25.107 19.0447 25.1335C19.0733 25.1692 19.1135 25.196 19.1597 25.2103L20.5409 25.6229C21.0544 25.777 21.521 26.0369 21.9035 26.3818C22.286 26.7268 22.574 27.1473 22.7446 27.6101L23.2026 28.8554C23.2177 28.8974 23.2472 28.934 23.2869 28.96C23.3266 28.986 23.3743 29 23.4234 29C23.4724 29 23.5202 28.986 23.5599 28.96C23.5995 28.934 23.6291 28.8974 23.6442 28.8554L24.1186 27.6258C24.2899 27.1634 24.5781 26.7432 24.9606 26.3983C25.343 26.0534 25.8092 25.7934 26.3223 25.6386L27.7035 25.226C27.7502 25.2124 27.7908 25.1858 27.8197 25.1501C27.8485 25.1144 27.8641 25.0713 27.8641 25.0271C27.8641 24.9829 27.8485 24.9399 27.8197 24.9042C27.7908 24.8684 27.7502 24.8418 27.7035 24.8282L26.3398 24.399C25.8211 24.2454 25.3499 23.9841 24.964 23.6362C24.5782 23.2882 24.2886 22.8634 24.1186 22.396L23.6606 21.1517C23.6437 21.1101 23.6126 21.0745 23.5718 21.0498C23.531 21.0252 23.4826 21.0128 23.4334 21.0146C23.3843 21.0163 23.3371 21.0321 23.2986 21.0595C23.2601 21.087 23.2322 21.1248 23.219 21.1675M31.4979 13.2103L30.8571 14.9311C30.6188 15.5854 30.2131 16.18 29.6728 16.6671C29.1325 17.1542 28.4727 17.52 27.7466 17.7352L25.814 18.3134C25.7485 18.3323 25.6913 18.3694 25.6507 18.4195C25.6102 18.4695 25.5883 18.5299 25.5883 18.5919C25.5883 18.6539 25.6102 18.7142 25.6507 18.7643C25.6913 18.8143 25.7485 18.8515 25.814 18.8703L27.7466 19.4486C28.4659 19.6638 29.1194 20.0274 29.6551 20.5104C30.1909 20.9933 30.594 21.5823 30.8325 22.2304L31.4743 23.9734C31.4962 24.0313 31.5377 24.0816 31.593 24.1172C31.6482 24.1528 31.7144 24.1719 31.7823 24.1719C31.8503 24.1719 31.9165 24.1528 31.9717 24.1172C32.027 24.0816 32.0685 24.0313 32.0904 23.9734L32.7569 22.2526C32.996 21.6049 33.3994 21.0162 33.9351 20.5333C34.4707 20.0505 35.1238 19.6867 35.8427 19.4708L37.7743 18.8925C37.8398 18.8737 37.897 18.8365 37.9376 18.7865C37.9781 18.7364 38 18.6761 38 18.6141C38 18.5521 37.9781 18.4917 37.9376 18.4417C37.897 18.3916 37.8398 18.3545 37.7743 18.3356L35.8663 17.7352C35.14 17.5206 34.4801 17.1549 33.9399 16.6677C33.3996 16.1806 32.9944 15.5856 32.7569 14.9311L32.1151 13.1881C32.0907 13.1309 32.047 13.082 31.9901 13.0483C31.9333 13.0146 31.8661 12.9978 31.7981 13.0002C31.7302 13.0027 31.6647 13.0243 31.611 13.062C31.5574 13.0996 31.5171 13.1515 31.4979 13.2103Z" stroke="white" stroke-width="1.5" stroke-linecap="round" stroke-linejoin="round"/>
<path d="M9.39766 48V38.1357H13.0686C15.0031 38.1357 16.343 39.4346 16.343 41.3691V41.3828C16.343 43.3105 15.0031 44.6299 13.0686 44.6299H10.9289V48H9.39766ZM12.6857 39.4277H10.9289V43.3447H12.6857C14.0187 43.3447 14.7844 42.627 14.7844 41.3896V41.376C14.7844 40.1455 14.0187 39.4277 12.6857 39.4277ZM17.7851 48V40.8086H19.2616V42.0391H19.2958C19.5282 41.1982 20.1298 40.6719 20.9501 40.6719C21.162 40.6719 21.3466 40.7061 21.4628 40.7266V42.1006C21.3466 42.0527 21.0868 42.0186 20.7997 42.0186C19.8495 42.0186 19.2616 42.6406 19.2616 43.7139V48H17.7851ZM25.4137 48.1436C23.3014 48.1436 22.0231 46.7012 22.0231 44.4316V44.4248C22.0231 42.1758 23.3219 40.6719 25.3385 40.6719C27.3551 40.6719 28.5924 42.1211 28.5924 44.2812V44.7803H23.4996C23.527 46.1406 24.2721 46.9336 25.4479 46.9336C26.3229 46.9336 26.9039 46.4824 27.0885 45.9424L27.109 45.8877H28.5104L28.4967 45.9629C28.2643 47.1045 27.1569 48.1436 25.4137 48.1436ZM25.3454 41.8818C24.3883 41.8818 23.65 42.5312 23.5202 43.7344H27.1295C27.0065 42.4902 26.3092 41.8818 25.3454 41.8818ZM32.7142 48.1436C30.9164 48.1436 29.8636 47.2549 29.7132 45.9424L29.7064 45.8809H31.1693L31.183 45.9492C31.3197 46.6123 31.8119 47.002 32.7211 47.002C33.6097 47.002 34.1429 46.6328 34.1429 46.0518V46.0449C34.1429 45.5801 33.8832 45.3135 33.1107 45.1289L31.9349 44.8623C30.5677 44.5479 29.891 43.8916 29.891 42.8457V42.8389C29.891 41.5537 31.0121 40.6719 32.6664 40.6719C34.3685 40.6719 35.3939 41.6221 35.4691 42.8457L35.4759 42.9277H34.0882L34.0814 42.8799C33.9925 42.251 33.5004 41.8135 32.6664 41.8135C31.8734 41.8135 31.3744 42.1895 31.3744 42.7637V42.7705C31.3744 43.2148 31.6683 43.5156 32.4408 43.7002L33.6097 43.9668C35.0795 44.3086 35.64 44.8896 35.64 45.9219V45.9287C35.64 47.2412 34.4095 48.1436 32.7142 48.1436ZM40.1378 48.1436C38.0255 48.1436 36.7471 46.7012 36.7471 44.4316V44.4248C36.7471 42.1758 38.046 40.6719 40.0626 40.6719C42.0792 40.6719 43.3165 42.1211 43.3165 44.2812V44.7803H38.2237C38.2511 46.1406 38.9962 46.9336 40.172 46.9336C41.047 46.9336 41.628 46.4824 41.8126 45.9424L41.8331 45.8877H43.2345L43.2208 45.9629C42.9884 47.1045 41.8809 48.1436 40.1378 48.1436ZM40.0694 41.8818C39.1124 41.8818 38.3741 42.5312 38.2442 43.7344H41.8536C41.7305 42.4902 41.0333 41.8818 40.0694 41.8818ZM47.2674 48.1436C45.8455 48.1436 45.1619 47.542 45.1619 46.1064V41.9844H44.1297V40.8086H45.1619V38.9355H46.6727V40.8086H48.0193V41.9844H46.6727V46.0176C46.6727 46.749 47.0008 46.9678 47.6229 46.9678C47.7801 46.9678 47.91 46.9541 48.0193 46.9404V48.082C47.8484 48.1094 47.5682 48.1436 47.2674 48.1436Z" fill="white"/>
</svg>
