<svg width="18" height="18" viewBox="0 0 18 18" fill="none" xmlns="http://www.w3.org/2000/svg">
<path d="M17 1L10.8286 7.17143M17 1H11.2857M17 1V6.71429M1 11.2857C1 12.8012 1.60204 14.2547 2.67368 15.3263C3.74531 16.398 5.19876 17 6.71429 17C8.22981 17 9.68326 16.398 10.7549 15.3263C11.8265 14.2547 12.4286 12.8012 12.4286 11.2857C12.4286 9.77019 11.8265 8.31674 10.7549 7.2451C9.68326 6.17347 8.22981 5.57143 6.71429 5.57143C5.19876 5.57143 3.74531 6.17347 2.67368 7.2451C1.60204 8.31674 1 9.77019 1 11.2857Z" stroke="#646464" stroke-width="2" stroke-linecap="round" stroke-linejoin="round"/>
</svg>
