<svg width="17" height="16" viewBox="0 0 17 16" fill="none" xmlns="http://www.w3.org/2000/svg">
<path d="M16.0556 5.13993C16.2869 5.13996 16.5102 5.22569 16.683 5.38086C16.8559 5.53603 16.9663 5.74984 16.9934 5.98175L17 6.09329V10.8601C17 11.8384 16.6275 12.7794 15.9595 13.4883C15.2915 14.1972 14.3791 14.6198 13.4111 14.6687L13.2222 14.6735H4.82328L4.80439 15.0691L4.77228 15.5639C4.74678 15.8938 4.43983 16.0949 4.17633 15.9548L3.88733 15.7984L3.54733 15.6049L3.36033 15.4934L2.95422 15.2426L2.73794 15.1025L2.30067 14.807L2.10233 14.6668L1.74628 14.4065L1.44878 14.1777L1.32317 14.0786C1.10028 13.8994 1.11067 13.539 1.34489 13.3521L1.60933 13.1453L1.93044 12.905L2.30822 12.6362L2.73889 12.3454L3.17522 12.068L3.56811 11.8306L3.91283 11.6351L4.20278 11.4778C4.4625 11.3415 4.74206 11.5122 4.76756 11.821L4.79117 12.1519L4.81383 12.5475L4.82328 12.7668H13.2222C13.6988 12.7669 14.1578 12.5853 14.5072 12.2582C14.8566 11.9311 15.0706 11.4828 15.1064 11.0031L15.1111 10.8601V6.09329C15.1111 5.84044 15.2106 5.59795 15.3877 5.41917C15.5648 5.24038 15.8051 5.13993 16.0556 5.13993ZM12.8237 0.0442482L13.1127 0.201552L13.4527 0.395083L13.6397 0.506626L14.0458 0.757358L14.2621 0.897502L14.6993 1.19304L14.8977 1.33318L15.2537 1.59345L15.5512 1.82226L15.6768 1.92141C15.8997 2.10064 15.8893 2.461 15.6551 2.64786L15.3907 2.85474L15.0696 3.09499L14.6918 3.36383L14.2611 3.65461L13.8248 3.93203L13.4319 4.16942L13.0872 4.36486L12.7972 4.52216C12.5375 4.65849 12.257 4.48784 12.2324 4.17895L12.2088 3.84814L12.1862 3.45249L12.1767 3.23322H3.77778C3.27681 3.23322 2.79637 3.43411 2.44213 3.79169C2.0879 4.14926 1.88889 4.63424 1.88889 5.13993V9.90671C1.88889 10.1596 1.78938 10.402 1.61227 10.5808C1.43515 10.7596 1.19493 10.8601 0.944444 10.8601C0.693962 10.8601 0.453739 10.7596 0.276621 10.5808C0.0995036 10.402 0 10.1596 0 9.90671V5.13993C0 4.12855 0.398015 3.15859 1.10649 2.44344C1.81496 1.72828 2.77585 1.32651 3.77778 1.32651H12.1767L12.1956 0.930869L12.2164 0.587661L12.2277 0.436077C12.2532 0.106216 12.5602 -0.095895 12.8237 0.0442482Z" fill="#00BFFF"/>
</svg>
