<svg width="60" height="60" viewBox="0 0 60 60" fill="none" xmlns="http://www.w3.org/2000/svg">
<circle cx="30" cy="30" r="30" fill="white"/>
<path d="M39.8333 26.4249C40.1191 26.425 40.3949 26.5321 40.6084 26.7261C40.822 26.92 40.9584 27.1873 40.9918 27.4772L41 27.6166V33.5751C41 34.7981 40.5398 35.9742 39.7147 36.8604C38.8895 37.7465 37.7625 38.2748 36.5667 38.3359L36.3333 38.3419H25.9582L25.9348 38.8364L25.8952 39.4549C25.8637 39.8672 25.4845 40.1187 25.159 39.9435L24.802 39.7481L24.382 39.5061L24.151 39.3667L23.6493 39.0533L23.3822 38.8781L22.842 38.5087L22.597 38.3335L22.1572 38.0082L21.7897 37.7222L21.6345 37.5982C21.3592 37.3742 21.372 36.9237 21.6613 36.6902L21.988 36.4316L22.3847 36.1313L22.8513 35.7952L23.3833 35.4317L23.9223 35.085L24.4077 34.7882L24.8335 34.5439L25.1917 34.3473C25.5125 34.1769 25.8578 34.3902 25.8893 34.7763L25.9185 35.1898L25.9465 35.6844L25.9582 35.9585H36.3333C36.922 35.9587 37.489 35.7316 37.9206 35.3227C38.3523 34.9138 38.6167 34.3534 38.6608 33.7538L38.6667 33.5751V27.6166C38.6667 27.3006 38.7896 26.9974 39.0084 26.774C39.2272 26.5505 39.5239 26.4249 39.8333 26.4249ZM35.841 20.0553L36.198 20.2519L36.618 20.4939L36.849 20.6333L37.3507 20.9467L37.6178 21.1219L38.158 21.4913L38.403 21.6665L38.8428 21.9918L39.2103 22.2778L39.3655 22.4018C39.6408 22.6258 39.628 23.0763 39.3387 23.3098L39.012 23.5684L38.6153 23.8687L38.1487 24.2048L37.6167 24.5683L37.0777 24.915L36.5923 25.2118L36.1665 25.4561L35.8083 25.6527C35.4875 25.8231 35.141 25.6098 35.1107 25.2237L35.0815 24.8102L35.0535 24.3156L35.0418 24.0415H24.6667C24.0478 24.0415 23.4543 24.2926 23.0168 24.7396C22.5792 25.1866 22.3333 25.7928 22.3333 26.4249V32.3834C22.3333 32.6994 22.2104 33.0026 21.9916 33.226C21.7728 33.4495 21.4761 33.5751 21.1667 33.5751C20.8572 33.5751 20.5605 33.4495 20.3417 33.226C20.1229 33.0026 20 32.6994 20 32.3834V26.4249C20 25.1607 20.4917 23.9482 21.3668 23.0543C22.242 22.1604 23.429 21.6581 24.6667 21.6581H35.0418L35.0652 21.1636L35.0908 20.7346L35.1048 20.5451C35.1363 20.1328 35.5155 19.8801 35.841 20.0553Z" fill="#FF3318"/>
</svg>
