<svg width="57" height="59" viewBox="0 0 57 59" fill="none" xmlns="http://www.w3.org/2000/svg">
<path d="M0.398554 48L3.98742 38.1357H5.64172L9.22375 48H7.6173L6.71496 45.334H2.91418L2.005 48H0.398554ZM4.8009 39.7695L3.32434 44.1035H6.29797L4.82824 39.7695H4.8009ZM10.5975 48V38.1357H12.1287V48H10.5975ZM16.6194 48L20.2083 38.1357H21.8626L25.4446 48H23.8382L22.9358 45.334H19.135L18.2259 48H16.6194ZM21.0218 39.7695L19.5452 44.1035H22.5188L21.0491 39.7695H21.0218ZM28.0283 48L25.4375 40.8086H27.0098L28.8145 46.5576H28.8486L30.6533 40.8086H32.1914L29.6143 48H28.0283ZM35.281 48.1299C33.8454 48.1299 32.8816 47.248 32.8816 45.9561V45.9424C32.8816 44.6914 33.8523 43.9258 35.5544 43.8232L37.5095 43.707V43.167C37.5095 42.374 36.9968 41.8955 36.0808 41.8955C35.2263 41.8955 34.6999 42.2988 34.5769 42.873L34.5632 42.9346H33.1687L33.1755 42.8594C33.278 41.6221 34.3513 40.6719 36.1218 40.6719C37.8786 40.6719 38.9929 41.6016 38.9929 43.0439V48H37.5095V46.8652H37.4821C37.0652 47.6377 36.2312 48.1299 35.281 48.1299ZM34.3718 45.9219C34.3718 46.5508 34.8913 46.9473 35.6843 46.9473C36.7234 46.9473 37.5095 46.2432 37.5095 45.3066V44.7461L35.7527 44.8555C34.864 44.9102 34.3718 45.2998 34.3718 45.9082V45.9219ZM43.2309 48.1436C41.809 48.1436 41.1254 47.542 41.1254 46.1064V41.9844H40.0932V40.8086H41.1254V38.9355H42.6362V40.8086H43.9828V41.9844H42.6362V46.0176C42.6362 46.749 42.9643 46.9678 43.5864 46.9678C43.7436 46.9678 43.8735 46.9541 43.9828 46.9404V48.082C43.812 48.1094 43.5317 48.1436 43.2309 48.1436ZM47.4894 48.1299C46.0539 48.1299 45.09 47.248 45.09 45.9561V45.9424C45.09 44.6914 46.0607 43.9258 47.7628 43.8232L49.7179 43.707V43.167C49.7179 42.374 49.2052 41.8955 48.2892 41.8955C47.4347 41.8955 46.9084 42.2988 46.7853 42.873L46.7716 42.9346H45.3771L45.3839 42.8594C45.4865 41.6221 46.5597 40.6719 48.3302 40.6719C50.0871 40.6719 51.2013 41.6016 51.2013 43.0439V48H49.7179V46.8652H49.6906C49.2736 47.6377 48.4396 48.1299 47.4894 48.1299ZM46.5802 45.9219C46.5802 46.5508 47.0998 46.9473 47.8927 46.9473C48.9318 46.9473 49.7179 46.2432 49.7179 45.3066V44.7461L47.9611 44.8555C47.0724 44.9102 46.5802 45.2998 46.5802 45.9082V45.9219ZM52.9169 48V40.8086H54.3934V42.0391H54.4276C54.66 41.1982 55.2616 40.6719 56.0819 40.6719C56.2938 40.6719 56.4784 40.7061 56.5946 40.7266V42.1006C56.4784 42.0527 56.2186 42.0186 55.9315 42.0186C54.9813 42.0186 54.3934 42.6406 54.3934 43.7139V48H52.9169Z" fill="white"/>
<path d="M21 17V15C21 14.4696 21.2107 13.9609 21.5858 13.5858C21.9609 13.2107 22.4696 13 23 13H25M21 25V27C21 27.5304 21.2107 28.0391 21.5858 28.4142C21.9609 28.7893 22.4696 29 23 29H25M33 13H35C35.5304 13 36.0391 13.2107 36.4142 13.5858C36.7893 13.9609 37 14.4696 37 15V17M33 29H35C35.5304 29 36.0391 28.7893 36.4142 28.4142C36.7893 28.0391 37 27.5304 37 27V25M26 19H26.01M32 19H32.01M26.5 24C26.8259 24.3326 27.2148 24.5968 27.6441 24.7772C28.0734 24.9576 28.5344 25.0505 29 25.0505C29.4656 25.0505 29.9266 24.9576 30.3559 24.7772C30.7852 24.5968 31.1741 24.3326 31.5 24" stroke="white" stroke-width="2" stroke-linecap="round" stroke-linejoin="round"/>
</svg>
