<svg width="57" height="59" viewBox="0 0 57 59" fill="none" xmlns="http://www.w3.org/2000/svg">
<path d="M26.6111 28.0588H21.8889C21.3879 28.0588 20.9075 27.8605 20.5532 27.5075C20.199 27.1545 20 26.6757 20 26.1765V17.7059C20 17.2067 20.199 16.7279 20.5532 16.3749C20.9075 16.0218 21.3879 15.8235 21.8889 15.8235H22.8333C23.3343 15.8235 23.8147 15.6252 24.169 15.2722C24.5232 14.9192 24.7222 14.4404 24.7222 13.9412C24.7222 13.6916 24.8217 13.4522 24.9988 13.2757C25.176 13.0992 25.4162 13 25.6667 13H31.3333C31.5838 13 31.824 13.0992 32.0012 13.2757C32.1783 13.4522 32.2778 13.6916 32.2778 13.9412C32.2778 14.4404 32.4768 14.9192 32.831 15.2722C33.1853 15.6252 33.6657 15.8235 34.1667 15.8235H35.1111C35.6121 15.8235 36.0925 16.0218 36.4468 16.3749C36.801 16.7279 37 17.2067 37 17.7059V19.5882" stroke="#646464" stroke-width="1.5" stroke-linecap="round" stroke-linejoin="round"/>
<path d="M30.7308 19.7294C30.4815 19.4122 30.167 19.1518 29.8083 18.9657C29.4497 18.7797 29.0552 18.6723 28.6514 18.6508C28.2477 18.6292 27.844 18.6941 27.4674 18.8409C27.0909 18.9878 26.7503 19.2133 26.4685 19.5022C26.1866 19.7911 25.9701 20.1368 25.8335 20.516C25.6968 20.8953 25.6432 21.2992 25.6762 21.7008C25.7092 22.1024 25.8281 22.4923 26.0249 22.8443C26.2217 23.1963 26.4918 23.5023 26.817 23.7417M30.3889 29V25.2353C30.3889 24.7361 30.5879 24.2573 30.9422 23.9043C31.2964 23.5513 31.7769 23.353 32.2778 23.353C32.7788 23.353 33.2592 23.5513 33.6135 23.9043C33.9677 24.2573 34.1667 24.7361 34.1667 25.2353V29M30.3889 27.1177H34.1667M37 23.353V29" stroke="#646464" stroke-width="1.5" stroke-linecap="round" stroke-linejoin="round"/>
<path d="M13.383 48.1641C10.6418 48.1641 8.87812 46.168 8.87812 43.0645V43.0576C8.87812 39.9541 10.635 37.9717 13.383 37.9717C15.4338 37.9717 17.0266 39.2158 17.4025 41.082L17.4162 41.1504H16.1721L16.1242 41C15.7414 39.8037 14.7707 39.1065 13.383 39.1065C11.4143 39.1065 10.1428 40.6582 10.1428 43.0576V43.0645C10.1428 45.4639 11.4211 47.0293 13.383 47.0293C14.7639 47.0293 15.7209 46.3457 16.1516 45.0469L16.1721 44.9854H17.4162L17.4025 45.0537C17.0266 46.9404 15.4475 48.1641 13.383 48.1641ZM18.9677 48V40.8906H20.1571V42.0938H20.1845C20.4237 41.2734 21.039 40.7539 21.8388 40.7539C22.0439 40.7539 22.2216 40.7881 22.3173 40.8018V41.957C22.2216 41.9229 21.9687 41.8887 21.6816 41.8887C20.7587 41.8887 20.1571 42.5313 20.1571 43.6113V48H18.9677ZM26.152 48.1367C24.108 48.1367 22.8776 46.708 22.8776 44.4727V44.4658C22.8776 42.2647 24.1354 40.7539 26.0768 40.7539C28.0182 40.7539 29.2008 42.1963 29.2008 44.3291V44.7666H24.0807C24.108 46.2295 24.9147 47.084 26.1793 47.084C27.0817 47.084 27.7174 46.6328 27.9225 46.0244L27.943 45.9629H29.112L29.0983 46.0313C28.8659 47.207 27.7038 48.1367 26.152 48.1367ZM26.07 41.8067C25.0377 41.8067 24.2311 42.5108 24.1012 43.8369H27.9909C27.8746 42.4561 27.109 41.8067 26.07 41.8067ZM32.7621 48.1367C31.347 48.1367 30.3968 47.2822 30.3968 45.9902V45.9766C30.3968 44.7666 31.3402 44.0078 32.974 43.9121L35.0111 43.7959V43.2012C35.0111 42.333 34.4437 41.8067 33.4525 41.8067C32.5365 41.8067 31.9623 42.2442 31.8255 42.8799L31.8119 42.9414H30.6634L30.6703 42.8662C30.7728 41.6973 31.7914 40.7539 33.4662 40.7539C35.1478 40.7539 36.2005 41.6631 36.2005 43.085V48H35.0111V46.8447H34.9837C34.5668 47.624 33.7123 48.1367 32.7621 48.1367ZM31.6136 45.9902C31.6136 46.6738 32.1742 47.1045 33.0287 47.1045C34.1498 47.1045 35.0111 46.332 35.0111 45.2998V44.7188L33.1107 44.835C32.1605 44.8897 31.6136 45.3135 31.6136 45.9766V45.9902ZM40.3018 48.1367C38.9962 48.1367 38.3536 47.5488 38.3536 46.1885V41.875H37.3145V40.8906H38.3536V38.9697H39.5841V40.8906H40.9376V41.875H39.5841V46.1817C39.5841 46.9404 39.919 47.1524 40.5548 47.1524C40.6983 47.1524 40.835 47.1318 40.9376 47.125V48.0889C40.7872 48.1094 40.5343 48.1367 40.3018 48.1367ZM45.2166 48.1367C43.1727 48.1367 41.9422 46.708 41.9422 44.4727V44.4658C41.9422 42.2647 43.2 40.7539 45.1414 40.7539C47.0828 40.7539 48.2654 42.1963 48.2654 44.3291V44.7666H43.1453C43.1727 46.2295 43.9793 47.084 45.2439 47.084C46.1463 47.084 46.782 46.6328 46.9871 46.0244L47.0076 45.9629H48.1766L48.1629 46.0313C47.9305 47.207 46.7684 48.1367 45.2166 48.1367ZM45.1346 41.8067C44.1023 41.8067 43.2957 42.5108 43.1658 43.8369H47.0555C46.9393 42.4561 46.1736 41.8067 45.1346 41.8067Z" fill="#646464"/>
</svg>
