<svg width="19" height="22" viewBox="0 0 19 22" fill="none" xmlns="http://www.w3.org/2000/svg">
<path d="M17.9998 15V7.5C17.9998 6.672 17.3588 6 16.5198 6C15.9998 6 14.9998 6.3 14.9998 7.5V4.5M14.9998 4.5C14.9998 3.672 14.3588 3 13.5198 3C13.0128 3 11.9998 3.3 11.9998 4.5M14.9998 4.5V10M11.9998 4.5V2.5C11.9998 1.672 11.3588 1 10.5198 1C9.67976 1 8.99976 1.672 8.99976 2.5V4.5M11.9998 4.5V10M8.99976 4.5C8.99976 3.3 8.00676 3 7.49976 3C6.65976 3 5.99976 3.691 5.99976 4.52V13M8.99976 4.5V10" stroke="#00BFFF" stroke-width="2" stroke-linecap="round" stroke-linejoin="round"/>
<path d="M17.9998 15.0004C17.9998 19.0004 14.8658 21.0004 10.9998 21.0004C7.13385 21.0004 5.80385 20.0004 2.80385 15.0004L1.23285 12.3954C0.696849 11.5274 1.12585 10.4014 2.11385 10.0814C2.43695 9.97632 2.78452 9.97289 3.10963 10.0716C3.43474 10.1703 3.72173 10.3664 3.93185 10.6334L5.99985 13.0334" stroke="#00BFFF" stroke-width="2" stroke-linecap="round" stroke-linejoin="round"/>
</svg>
