<svg width="60" height="60" viewBox="0 0 60 60" fill="none" xmlns="http://www.w3.org/2000/svg">
<circle cx="30" cy="30" r="30" fill="white"/>
<path d="M31 20.3999C31 19.8476 30.5523 19.3999 30 19.3999C29.4477 19.3999 29 19.8476 29 20.3999H31ZM29.2929 35.507C29.6834 35.8975 30.3166 35.8975 30.7071 35.507L37.0711 29.143C37.4616 28.7525 37.4616 28.1194 37.0711 27.7288C36.6806 27.3383 36.0474 27.3383 35.6569 27.7288L30 33.3857L24.3432 27.7288C23.9526 27.3383 23.3195 27.3383 22.929 27.7288C22.5384 28.1194 22.5384 28.7525 22.929 29.143L29.2929 35.507ZM20.4 38.5999C19.8477 38.5999 19.4 39.0476 19.4 39.5999C19.4 40.1522 19.8477 40.5999 20.4 40.5999V38.5999ZM39.6 40.5999C40.1523 40.5999 40.6 40.1522 40.6 39.5999C40.6 39.0476 40.1523 38.5999 39.6 38.5999V40.5999ZM29 20.3999V34.7999H31V20.3999H29ZM20.4 40.5999H39.6V38.5999H20.4V40.5999Z" fill="#FF3318"/>
</svg>
