<svg width="57" height="59" viewBox="0 0 57 59" fill="none" xmlns="http://www.w3.org/2000/svg">
<path d="M26.6111 28.0588H21.8889C21.3879 28.0588 20.9075 27.8605 20.5532 27.5075C20.199 27.1545 20 26.6757 20 26.1765V17.7059C20 17.2067 20.199 16.7279 20.5532 16.3749C20.9075 16.0218 21.3879 15.8235 21.8889 15.8235H22.8333C23.3343 15.8235 23.8147 15.6252 24.169 15.2722C24.5232 14.9192 24.7222 14.4404 24.7222 13.9412C24.7222 13.6916 24.8217 13.4522 24.9988 13.2757C25.176 13.0992 25.4162 13 25.6667 13H31.3333C31.5838 13 31.824 13.0992 32.0012 13.2757C32.1783 13.4522 32.2778 13.6916 32.2778 13.9412C32.2778 14.4404 32.4768 14.9192 32.831 15.2722C33.1853 15.6252 33.6657 15.8235 34.1667 15.8235H35.1111C35.6121 15.8235 36.0925 16.0218 36.4468 16.3749C36.801 16.7279 37 17.2067 37 17.7059V19.5882" stroke="white" stroke-width="1.5" stroke-linecap="round" stroke-linejoin="round"/>
<path d="M30.7308 19.7294C30.4815 19.4122 30.167 19.1518 29.8083 18.9657C29.4497 18.7797 29.0552 18.6723 28.6514 18.6508C28.2477 18.6292 27.844 18.6941 27.4674 18.8409C27.0909 18.9878 26.7503 19.2133 26.4685 19.5022C26.1866 19.7911 25.9701 20.1368 25.8335 20.516C25.6968 20.8953 25.6432 21.2992 25.6762 21.7008C25.7092 22.1024 25.8281 22.4923 26.0249 22.8443C26.2217 23.1963 26.4918 23.5023 26.817 23.7417M30.3889 29V25.2353C30.3889 24.7361 30.5879 24.2573 30.9422 23.9043C31.2964 23.5513 31.7769 23.353 32.2778 23.353C32.7788 23.353 33.2592 23.5513 33.6135 23.9043C33.9677 24.2573 34.1667 24.7361 34.1667 25.2353V29M30.3889 27.1177H34.1667M37 23.353V29" stroke="white" stroke-width="1.5" stroke-linecap="round" stroke-linejoin="round"/>
<path d="M12.7336 48.1641C9.93769 48.1641 8.16035 46.1953 8.16035 43.0645V43.0576C8.16035 39.9268 9.93769 37.9717 12.7336 37.9717C14.9074 37.9717 16.5412 39.3115 16.8488 41.2598L16.8625 41.3213H15.3449L15.3039 41.1846C14.9758 40.0293 14.0598 39.3252 12.7336 39.3252C10.9016 39.3252 9.72578 40.7744 9.72578 43.0576V43.0645C9.72578 45.3477 10.9084 46.8106 12.7336 46.8106C14.0461 46.8106 14.9553 46.127 15.3244 44.876L15.3449 44.8145H16.8625L16.8557 44.8828C16.548 46.8447 14.9143 48.1641 12.7336 48.1641ZM18.3525 48V40.8086H19.829V42.0391H19.8632C20.0956 41.1983 20.6972 40.6719 21.5175 40.6719C21.7294 40.6719 21.914 40.7061 22.0302 40.7266V42.1006C21.914 42.0527 21.6542 42.0186 21.3671 42.0186C20.4169 42.0186 19.829 42.6406 19.829 43.7139V48H18.3525ZM25.9811 48.1436C23.8688 48.1436 22.5905 46.7012 22.5905 44.4317V44.4248C22.5905 42.1758 23.8893 40.6719 25.9059 40.6719C27.9225 40.6719 29.1598 42.1211 29.1598 44.2813V44.7803H24.067C24.0944 46.1406 24.8395 46.9336 26.0153 46.9336C26.8903 46.9336 27.4713 46.4824 27.6559 45.9424L27.6764 45.8877H29.0778L29.0641 45.9629C28.8317 47.1045 27.7243 48.1436 25.9811 48.1436ZM25.9127 41.8818C24.9557 41.8818 24.2174 42.5313 24.0875 43.7344H27.6969C27.5739 42.4902 26.8766 41.8818 25.9127 41.8818ZM32.7005 48.1299C31.265 48.1299 30.3011 47.2481 30.3011 45.9561V45.9424C30.3011 44.6914 31.2718 43.9258 32.974 43.8233L34.9291 43.707V43.167C34.9291 42.374 34.4164 41.8955 33.5004 41.8955C32.6459 41.8955 32.1195 42.2988 31.9964 42.8731L31.9828 42.9346H30.5882L30.5951 42.8594C30.6976 41.6221 31.7709 40.6719 33.5414 40.6719C35.2982 40.6719 36.4125 41.6016 36.4125 43.044V48H34.9291V46.8652H34.9017C34.4847 47.6377 33.6507 48.1299 32.7005 48.1299ZM31.7914 45.9219C31.7914 46.5508 32.3109 46.9473 33.1039 46.9473C34.1429 46.9473 34.9291 46.2432 34.9291 45.3067V44.7461L33.1722 44.8555C32.2836 44.9102 31.7914 45.2998 31.7914 45.9082V45.9219ZM40.6505 48.1436C39.2286 48.1436 38.545 47.542 38.545 46.1065V41.9844H37.5128V40.8086H38.545V38.9356H40.0557V40.8086H41.4024V41.9844H40.0557V46.0176C40.0557 46.749 40.3839 46.9678 41.0059 46.9678C41.1632 46.9678 41.293 46.9541 41.4024 46.9404V48.082C41.2315 48.1094 40.9512 48.1436 40.6505 48.1436ZM45.7977 48.1436C43.6854 48.1436 42.407 46.7012 42.407 44.4317V44.4248C42.407 42.1758 43.7059 40.6719 45.7225 40.6719C47.7391 40.6719 48.9764 42.1211 48.9764 44.2813V44.7803H43.8836C43.9109 46.1406 44.6561 46.9336 45.8318 46.9336C46.7068 46.9336 47.2879 46.4824 47.4725 45.9424L47.493 45.8877H48.8943L48.8807 45.9629C48.6482 47.1045 47.5408 48.1436 45.7977 48.1436ZM45.7293 41.8818C44.7723 41.8818 44.034 42.5313 43.9041 43.7344H47.5135C47.3904 42.4902 46.6932 41.8818 45.7293 41.8818Z" fill="white"/>
</svg>
