<svg width="57" height="59" viewBox="0 0 57 59" fill="none" xmlns="http://www.w3.org/2000/svg">
<path d="M23.2201 21.1675L22.7621 22.396C22.5914 22.8631 22.3015 23.2875 21.9158 23.6354C21.53 23.9832 21.0591 24.2447 20.5409 24.399L19.1597 24.8125C19.1249 24.8227 19.0934 24.8401 19.0675 24.8634C19.0417 24.8867 19.0224 24.9152 19.0112 24.9465C18.9999 24.9779 18.9971 25.0112 19.003 25.0437C19.0088 25.0762 19.0231 25.107 19.0447 25.1335C19.0733 25.1692 19.1135 25.196 19.1597 25.2103L20.5409 25.6229C21.0544 25.777 21.521 26.0369 21.9035 26.3818C22.286 26.7268 22.574 27.1473 22.7446 27.6101L23.2026 28.8554C23.2177 28.8974 23.2472 28.934 23.2869 28.96C23.3266 28.986 23.3743 29 23.4234 29C23.4724 29 23.5202 28.986 23.5599 28.96C23.5995 28.934 23.6291 28.8974 23.6442 28.8554L24.1186 27.6258C24.2899 27.1634 24.5781 26.7432 24.9606 26.3983C25.343 26.0534 25.8092 25.7934 26.3223 25.6386L27.7035 25.226C27.7502 25.2124 27.7908 25.1858 27.8197 25.1501C27.8485 25.1144 27.8641 25.0713 27.8641 25.0271C27.8641 24.9829 27.8485 24.9399 27.8197 24.9042C27.7908 24.8684 27.7502 24.8418 27.7035 24.8282L26.3398 24.399C25.8211 24.2454 25.3499 23.9841 24.964 23.6362C24.5782 23.2882 24.2886 22.8634 24.1186 22.396L23.6606 21.1517C23.6437 21.1101 23.6126 21.0745 23.5718 21.0498C23.531 21.0252 23.4826 21.0128 23.4334 21.0146C23.3843 21.0163 23.3371 21.0321 23.2986 21.0595C23.2601 21.087 23.2322 21.1248 23.219 21.1675M31.4979 13.2103L30.8571 14.9311C30.6188 15.5854 30.2131 16.18 29.6728 16.6671C29.1325 17.1542 28.4727 17.52 27.7466 17.7352L25.814 18.3134C25.7485 18.3323 25.6913 18.3694 25.6507 18.4195C25.6102 18.4695 25.5883 18.5299 25.5883 18.5919C25.5883 18.6539 25.6102 18.7142 25.6507 18.7643C25.6913 18.8143 25.7485 18.8515 25.814 18.8703L27.7466 19.4486C28.4659 19.6638 29.1194 20.0274 29.6551 20.5104C30.1909 20.9933 30.594 21.5823 30.8325 22.2304L31.4743 23.9734C31.4962 24.0313 31.5377 24.0816 31.593 24.1172C31.6482 24.1528 31.7144 24.1719 31.7823 24.1719C31.8503 24.1719 31.9165 24.1528 31.9717 24.1172C32.027 24.0816 32.0685 24.0313 32.0904 23.9734L32.7569 22.2526C32.996 21.6049 33.3994 21.0162 33.9351 20.5333C34.4707 20.0505 35.1238 19.6867 35.8427 19.4708L37.7743 18.8925C37.8398 18.8737 37.897 18.8365 37.9376 18.7865C37.9781 18.7364 38 18.6761 38 18.6141C38 18.5521 37.9781 18.4917 37.9376 18.4417C37.897 18.3916 37.8398 18.3545 37.7743 18.3356L35.8663 17.7352C35.14 17.5206 34.4801 17.1549 33.9399 16.6677C33.3996 16.1806 32.9944 15.5856 32.7569 14.9311L32.1151 13.1881C32.0907 13.1309 32.047 13.082 31.9901 13.0483C31.9333 13.0146 31.8661 12.9978 31.7981 13.0002C31.7302 13.0027 31.6647 13.0243 31.611 13.062C31.5574 13.0996 31.5171 13.1515 31.4979 13.2103Z" stroke="#646464" stroke-width="1.5" stroke-linecap="round" stroke-linejoin="round"/>
<path d="M10.1701 48V38.1357H13.6838C15.5363 38.1357 16.8488 39.4141 16.8488 41.2871V41.3008C16.8488 43.1738 15.5363 44.4795 13.6838 44.4795H11.4006V48H10.1701ZM13.3693 39.2295H11.4006V43.3857H13.3693C14.7775 43.3857 15.591 42.6133 15.591 41.3145V41.3008C15.591 40.002 14.7775 39.2295 13.3693 39.2295ZM18.3593 48V40.8906H19.5487V42.0938H19.5761C19.8153 41.2734 20.4306 40.7539 21.2304 40.7539C21.4355 40.7539 21.6132 40.7881 21.7089 40.8018V41.957C21.6132 41.9229 21.3603 41.8887 21.0732 41.8887C20.1503 41.8887 19.5487 42.5312 19.5487 43.6113V48H18.3593ZM25.5436 48.1367C23.4996 48.1367 22.2692 46.708 22.2692 44.4727V44.4658C22.2692 42.2646 23.527 40.7539 25.4684 40.7539C27.4098 40.7539 28.5924 42.1963 28.5924 44.3291V44.7666H23.4723C23.4996 46.2295 24.3063 47.084 25.5709 47.084C26.4733 47.084 27.109 46.6328 27.3141 46.0244L27.3346 45.9629H28.5036L28.4899 46.0312C28.2575 47.207 27.0954 48.1367 25.5436 48.1367ZM25.4616 41.8066C24.4293 41.8066 23.6227 42.5107 23.4928 43.8369H27.3825C27.2663 42.4561 26.5006 41.8066 25.4616 41.8066ZM32.598 48.1367C30.9232 48.1367 29.9115 47.2822 29.7679 46.0107L29.7611 45.9492H30.9505L30.9642 46.0176C31.1078 46.7285 31.6341 47.1455 32.6048 47.1455C33.5687 47.1455 34.1429 46.7422 34.1429 46.0996V46.0928C34.1429 45.5801 33.8763 45.293 33.0697 45.0947L31.9418 44.8213C30.6019 44.5 29.9525 43.8779 29.9525 42.8525V42.8457C29.9525 41.6221 31.0257 40.7539 32.5638 40.7539C34.1224 40.7539 35.1136 41.6631 35.2025 42.8525L35.2093 42.9414H34.0746L34.0677 42.8936C33.972 42.2031 33.4457 41.7451 32.5638 41.7451C31.7025 41.7451 31.1693 42.1621 31.1693 42.791V42.7979C31.1693 43.2832 31.4906 43.6182 32.2767 43.8096L33.4046 44.083C34.8402 44.4316 35.3597 44.999 35.3597 46.0107V46.0176C35.3597 47.2617 34.1839 48.1367 32.598 48.1367ZM39.8028 48.1367C37.7589 48.1367 36.5284 46.708 36.5284 44.4727V44.4658C36.5284 42.2646 37.7862 40.7539 39.7276 40.7539C41.669 40.7539 42.8516 42.1963 42.8516 44.3291V44.7666H37.7315C37.7589 46.2295 38.5655 47.084 39.8302 47.084C40.7325 47.084 41.3682 46.6328 41.5733 46.0244L41.5938 45.9629H42.7628L42.7491 46.0312C42.5167 47.207 41.3546 48.1367 39.8028 48.1367ZM39.7208 41.8066C38.6886 41.8066 37.8819 42.5107 37.752 43.8369H41.6417C41.5255 42.4561 40.7598 41.8066 39.7208 41.8066ZM46.6453 48.1367C45.3396 48.1367 44.6971 47.5488 44.6971 46.1885V41.875H43.658V40.8906H44.6971V38.9697H45.9275V40.8906H47.2811V41.875H45.9275V46.1816C45.9275 46.9404 46.2625 47.1523 46.8982 47.1523C47.0418 47.1523 47.1785 47.1318 47.2811 47.125V48.0889C47.1307 48.1094 46.8777 48.1367 46.6453 48.1367Z" fill="#646464"/>
</svg>
