<svg width="16" height="22" viewBox="0 0 16 22" fill="none" xmlns="http://www.w3.org/2000/svg">
<path fill-rule="evenodd" clip-rule="evenodd" d="M0 2.09277C0 1.56234 0.210714 1.05363 0.585786 0.67856C0.960859 0.303487 1.46957 0.0927734 2 0.0927734H14C14.5304 0.0927734 15.0391 0.303487 15.4142 0.67856C15.7893 1.05363 16 1.56234 16 2.09277V18.0928C16 18.6232 15.7893 19.1319 15.4142 19.507C15.0391 19.8821 14.5304 20.0928 14 20.0928H2C1.46957 20.0928 0.960859 19.8821 0.585786 19.507C0.210714 19.1319 0 18.6232 0 18.0928V2.09277ZM14 2.09277H2V18.0928H14V2.09277ZM4 7.09277C4 6.82756 4.10536 6.5732 4.29289 6.38567C4.48043 6.19813 4.73478 6.09277 5 6.09277H11C11.2652 6.09277 11.5196 6.19813 11.7071 6.38567C11.8946 6.5732 12 6.82756 12 7.09277C12 7.35799 11.8946 7.61234 11.7071 7.79988C11.5196 7.98742 11.2652 8.09277 11 8.09277H5C4.73478 8.09277 4.48043 7.98742 4.29289 7.79988C4.10536 7.61234 4 7.35799 4 7.09277ZM5 11.0928C4.73478 11.0928 4.48043 11.1981 4.29289 11.3857C4.10536 11.5732 4 11.8276 4 12.0928C4 12.358 4.10536 12.6123 4.29289 12.7999C4.48043 12.9874 4.73478 13.0928 5 13.0928H8C8.26522 13.0928 8.51957 12.9874 8.70711 12.7999C8.89464 12.6123 9 12.358 9 12.0928C9 11.8276 8.89464 11.5732 8.70711 11.3857C8.51957 11.1981 8.26522 11.0928 8 11.0928H5Z" fill="#00BFFF"/>
</svg>
