<svg width="57" height="59" viewBox="0 0 57 59" fill="none" xmlns="http://www.w3.org/2000/svg">
<path d="M20.5 17H36.5M20.5 17V27C20.5 27.5304 20.7107 28.0391 21.0858 28.4142C21.4609 28.7893 21.9696 29 22.5 29H34.5C35.0304 29 35.5391 28.7893 35.9142 28.4142C36.2893 28.0391 36.5 27.5304 36.5 27V17M20.5 17L24.5 13H32.5L36.5 17M24.5 21H28.5" stroke="#646464" stroke-width="1.3" stroke-linecap="round" stroke-linejoin="round"/>
<path d="M4.20262 48V38.1357H7.71629C9.56883 38.1357 10.8813 39.4141 10.8813 41.2871V41.3008C10.8813 43.1738 9.56883 44.4795 7.71629 44.4795H5.43309V48H4.20262ZM7.40184 39.2295H5.43309V43.3857H7.40184C8.81004 43.3857 9.62352 42.6133 9.62352 41.3145V41.3008C9.62352 40.002 8.81004 39.2295 7.40184 39.2295ZM12.3918 48V40.8906H13.5813V42.0938H13.6086C13.8479 41.2734 14.4631 40.7539 15.2629 40.7539C15.468 40.7539 15.6457 40.7881 15.7414 40.8018V41.957C15.6457 41.9229 15.3928 41.8887 15.1057 41.8887C14.1828 41.8887 13.5813 42.5312 13.5813 43.6113V48H12.3918ZM19.5966 48.1367C17.621 48.1367 16.3017 46.708 16.3017 44.4453V44.4316C16.3017 42.1689 17.6279 40.7539 19.5898 40.7539C21.5517 40.7539 22.8847 42.1621 22.8847 44.4316V44.4453C22.8847 46.7148 21.5585 48.1367 19.5966 48.1367ZM19.6034 47.084C20.8544 47.084 21.6679 46.1133 21.6679 44.4453V44.4316C21.6679 42.7637 20.8476 41.8066 19.5898 41.8066C18.3525 41.8066 17.5185 42.7705 17.5185 44.4316V44.4453C17.5185 46.1201 18.3456 47.084 19.6034 47.084ZM27.0407 48.1367C25.2223 48.1367 24.0192 46.6875 24.0192 44.4453V44.4385C24.0192 42.1963 25.236 40.7539 27.0202 40.7539C28.025 40.7539 28.8522 41.2598 29.2965 42.0801H29.3239V38.1357H30.5133V48H29.3239V46.7969H29.2965C28.8522 47.624 28.0592 48.1367 27.0407 48.1367ZM27.2731 47.084C28.4762 47.084 29.3307 46.0381 29.3307 44.4453V44.4385C29.3307 42.8525 28.4694 41.8066 27.2731 41.8066C26.0153 41.8066 25.236 42.8184 25.236 44.4385V44.4453C25.236 46.0791 26.0153 47.084 27.2731 47.084ZM33.056 39.6875C32.6459 39.6875 32.3109 39.3525 32.3109 38.9424C32.3109 38.5254 32.6459 38.1973 33.056 38.1973C33.473 38.1973 33.8011 38.5254 33.8011 38.9424C33.8011 39.3525 33.473 39.6875 33.056 39.6875ZM31.4496 50.3994C31.3744 50.3994 31.2992 50.3994 31.224 50.3926V49.3467H31.4086C32.181 49.3467 32.4613 49.1074 32.4613 48.3145V40.8906H33.6507V48.3008C33.6507 49.7432 32.9671 50.3994 31.4496 50.3994ZM38.4766 48.1367C36.4327 48.1367 35.2022 46.708 35.2022 44.4727V44.4658C35.2022 42.2646 36.46 40.7539 38.4014 40.7539C40.3428 40.7539 41.5255 42.1963 41.5255 44.3291V44.7666H36.4053C36.4327 46.2295 37.2393 47.084 38.504 47.084C39.4063 47.084 40.0421 46.6328 40.2471 46.0244L40.2677 45.9629H41.4366L41.4229 46.0312C41.1905 47.207 40.0284 48.1367 38.4766 48.1367ZM38.3946 41.8066C37.3624 41.8066 36.5557 42.5107 36.4259 43.8369H40.3155C40.1993 42.4561 39.4337 41.8066 38.3946 41.8066ZM45.9549 48.1367C43.9383 48.1367 42.66 46.7012 42.66 44.4385V44.4316C42.66 42.1895 43.9656 40.7539 45.9412 40.7539C47.7117 40.7539 48.7576 41.9297 48.908 43.1465L48.9148 43.2012H47.7527L47.7391 43.1465C47.5613 42.4355 46.9871 41.8066 45.9412 41.8066C44.7039 41.8066 43.8768 42.832 43.8768 44.4453V44.4521C43.8768 46.1064 44.7244 47.084 45.9549 47.084C46.9256 47.084 47.5477 46.5371 47.7459 45.7441L47.7596 45.6895H48.9285L48.9217 45.7373C48.7303 47.0908 47.5613 48.1367 45.9549 48.1367ZM52.6128 48.1367C51.3071 48.1367 50.6646 47.5488 50.6646 46.1885V41.875H49.6255V40.8906H50.6646V38.9697H51.895V40.8906H53.2486V41.875H51.895V46.1816C51.895 46.9404 52.23 47.1523 52.8657 47.1523C53.0093 47.1523 53.146 47.1318 53.2486 47.125V48.0889C53.0982 48.1094 52.8452 48.1367 52.6128 48.1367Z" fill="#646464"/>
</svg>
